<?xml version="1.0" encoding="iso-8859-1"?>
<!-- Generator: Adobe Illustrator 19.0.0, SVG Export Plug-In . SVG Version: 6.00 Build 0)  -->
<svg version="1.1" id="Layer_1" xmlns="http://www.w3.org/2000/svg" xmlns:xlink="http://www.w3.org/1999/xlink" x="0px" y="0px"
	 viewBox="0 0 512 512" style="enable-background:new 0 0 512 512;" xml:space="preserve">
<rect x="169.94" y="424.126" style="fill:#A5C6E3;" width="80.053" height="80.053"/>
<rect x="129.908" y="392.102" style="fill:#1D71B8;" width="160.117" height="32.023"/>
<ellipse style="fill:#A5C6E3;" cx="362.081" cy="227.981" rx="40.032" ry="44.036"/>
<rect x="169.94" y="288.023" style="fill:#1D71B8;" width="24.015" height="24.015"/>
<rect x="153.923" y="264.008" style="fill:#A5C6E3;" width="56.041" height="24.015"/>
<rect x="145.925" y="231.985" style="fill:#36A9E1;" width="72.055" height="32.023"/>
<path style="fill:#1D71B8;" d="M225.979,223.977h-88.064V99.887c0-24.318,19.714-44.032,44.032-44.032l0,0
	c24.318,0,44.032,19.714,44.032,44.032L225.979,223.977L225.979,223.977z"/>
<rect x="105.893" y="352.07" style="fill:#36A9E1;" width="200.149" height="40.032"/>
<g>
	<polygon style="fill:#1D1D1B;" points="225.793,271.826 138.1,271.826 138.1,239.988 153.742,239.988 153.742,256.185 
		210.151,256.185 210.151,239.988 225.793,239.988 	"/>
	<rect x="153.923" y="280.203" style="fill:#1D1D1B;" width="56.039" height="15.642"/>
	<rect x="169.94" y="304.218" style="fill:#1D1D1B;" width="24.015" height="15.642"/>
	<polygon style="fill:#1D1D1B;" points="172.243,33.957 187.884,33.957 187.884,15.642 206.199,15.642 206.199,0 153.926,0 
		153.926,15.642 172.243,15.642 	"/>
	<path style="fill:#1D1D1B;" d="M362.548,175.185c-0.283,0-0.562,0.017-0.844,0.021c-10.136-28.98-29.052-54.882-53.731-73.41
		c-24.459-18.364-53.136-28.924-83.472-30.837c-8.784-15.765-25.619-26.457-44.91-26.457c-28.332,0-51.381,23.049-51.381,51.381
		v138.504h102.763V95.885c0-2.972-0.268-5.88-0.754-8.715c24.797,2.753,48.179,11.981,68.363,27.135
		c21.518,16.155,38.14,38.538,47.45,63.619c-20.252,6.896-34.866,26.088-34.866,48.643c0,22.563,14.625,41.762,34.889,48.65
		c-10.441,28.246-29.798,52.49-55.231,69.031H98.071v55.67h215.787v-53.223c21.875-18.111,38.466-41.877,47.842-68.77
		c0.284,0.004,0.563,0.022,0.848,0.022c28.332,0,51.38-23.049,51.38-51.381S390.88,175.185,362.548,175.185z M215.332,218.746
		h-71.481V95.885c0-19.707,16.033-35.74,35.74-35.74s35.741,16.033,35.741,35.74V218.746z M298.216,384.277H113.713V359.89h184.504
		v24.387H298.216z M362.548,262.307c-19.707,0-35.74-16.033-35.74-35.74s16.032-35.74,35.74-35.74
		c19.706,0,35.739,16.034,35.739,35.74S382.254,262.307,362.548,262.307z"/>
</g>
<g>
	<rect x="354.729" y="209.138" style="fill:#FFFFFF;" width="15.642" height="34.848"/>
	<rect x="345.126" y="218.742" style="fill:#FFFFFF;" width="34.848" height="15.642"/>
</g>
<g>
	<polygon style="fill:#1D1D1B;" points="297.845,431.942 122.089,431.942 122.089,408.11 137.73,408.11 137.73,416.301 
		282.204,416.301 282.204,408.11 297.845,408.11 	"/>
	<rect x="162.119" y="440.132" style="fill:#1D1D1B;" width="15.642" height="48.03"/>
	<rect x="242.173" y="440.132" style="fill:#1D1D1B;" width="15.642" height="48.03"/>
	<rect x="153.923" y="496.358" style="fill:#1D1D1B;" width="112.077" height="15.642"/>
</g>
<g>
</g>
<g>
</g>
<g>
</g>
<g>
</g>
<g>
</g>
<g>
</g>
<g>
</g>
<g>
</g>
<g>
</g>
<g>
</g>
<g>
</g>
<g>
</g>
<g>
</g>
<g>
</g>
<g>
</g>
</svg>
