<?xml version="1.0" encoding="iso-8859-1"?>
<!-- Generator: Adobe Illustrator 19.0.0, SVG Export Plug-In . SVG Version: 6.00 Build 0)  -->
<svg version="1.1" id="Layer_1" xmlns="http://www.w3.org/2000/svg" xmlns:xlink="http://www.w3.org/1999/xlink" x="0px" y="0px"
	 viewBox="0 0 356.672 356.672" style="enable-background:new 0 0 356.672 356.672;" xml:space="preserve">
<g>
	<title>research-data-mining-information-lab-chemistry-search</title>
	<path style="fill:#F78628;" d="M257.026,333.653l7.914,11.87h72.003l7.914-11.87l-14.323-38.286h-59.185L257.026,333.653z
		 M317.66,323.231h11.146v11.146H317.66V323.231z M295.368,323.231h11.146v11.146h-11.146V323.231z M273.076,323.231h11.146v11.146
		h-11.146V323.231z"/>
	<circle style="fill:#9CE7F7;" cx="128.179" cy="206.199" r="33.438"/>
	<path style="fill:#9CE7F7;" d="M128.179,261.929c30.779,0,55.73-24.951,55.73-55.73s-24.951-55.73-55.73-55.73
		s-55.73,24.951-55.73,55.73S97.4,261.929,128.179,261.929z M128.179,161.615c24.623,0,44.584,19.961,44.584,44.584
		s-19.961,44.584-44.584,44.584s-44.584-19.961-44.584-44.584S103.556,161.615,128.179,161.615z"/>
	<path style="fill:#9CE7F7;" d="M43.414,299.769l42.132-42.132c-3.222-2.672-6.189-5.639-8.861-8.861l-42.132,42.132
		c-2.447,2.428-2.462,6.38-0.034,8.827c0.011,0.011,0.023,0.023,0.034,0.034C37.007,302.199,40.96,302.199,43.414,299.769z"/>
	<path style="fill:#9CE7F7;" d="M27.866,345.523h172.762c9.234,0,16.719-7.485,16.719-16.719V128.178h-55.73
		c-3.078,0-5.573-2.495-5.573-5.573v-55.73H27.866c-9.234,0-16.719,7.485-16.719,16.719v245.21
		C11.147,338.038,18.632,345.523,27.866,345.523z M139.325,312.085H72.449v-11.146h66.876V312.085z M206.201,312.085h-55.73v-11.146
		h55.73V312.085z M206.201,289.793H167.19v-11.146h39.011V289.793z M206.201,267.502h-16.719v-11.146h16.719V267.502z M22.293,94.74
		h122.605v11.146H22.293V94.74z M83.595,117.032v11.146H55.731v-11.146C55.731,117.032,83.595,117.032,83.595,117.032z
		 M22.293,117.032h22.292v11.146H22.293V117.032z M22.293,139.324h27.865v11.146H22.293V139.324z M26.695,283.05l43.581-43.413
		c-18.472-31.983-7.518-72.885,24.465-91.357s72.885-7.518,91.357,24.466c18.472,31.983,7.518,72.885-24.465,91.357
		c-20.696,11.952-46.196,11.952-66.892,0l-43.58,43.58c-6.413,7.148-17.406,7.744-24.554,1.332
		c-7.148-6.413-7.744-17.406-1.332-24.554C25.721,283.964,26.195,283.493,26.695,283.05z"/>
	<polygon style="fill:#9CE7F7;" points="167.19,74.733 167.19,117.032 209.489,117.032 	"/>
	<rect x="22.293" y="94.74" style="fill:#414A52;" width="122.605" height="11.146"/>
	<path style="fill:#414A52;" d="M61.304,206.199c-0.02,11.743,3.076,23.282,8.972,33.438l-43.581,43.581
		c-6.565,7.008-6.207,18.011,0.801,24.577c6.687,6.265,17.088,6.265,23.775,0l43.469-43.692
		c31.986,18.467,72.887,7.508,91.354-24.478s7.508-72.887-24.478-91.354s-72.887-7.508-91.354,24.478
		C64.391,182.919,61.301,194.456,61.304,206.199z M43.414,299.769c-2.454,2.43-6.407,2.43-8.861,0
		c-2.447-2.428-2.462-6.38-0.034-8.827c0.011-0.011,0.023-0.023,0.034-0.034l42.132-42.132c2.672,3.222,5.639,6.189,8.861,8.861
		L43.414,299.769z M183.909,206.199c0,30.779-24.951,55.73-55.73,55.73s-55.73-24.951-55.73-55.73s24.951-55.73,55.73-55.73
		S183.909,175.42,183.909,206.199z"/>
	<path style="fill:#414A52;" d="M83.595,206.199c0,24.623,19.961,44.584,44.584,44.584s44.584-19.961,44.584-44.584
		s-19.961-44.584-44.584-44.584S83.595,181.576,83.595,206.199z M161.617,206.199c0,18.467-14.971,33.438-33.438,33.438
		s-33.438-14.971-33.438-33.438s14.971-33.438,33.438-33.438S161.617,187.732,161.617,206.199z"/>
	<rect x="22.293" y="117.032" style="fill:#414A52;" width="22.292" height="11.146"/>
	<rect x="55.731" y="117.032" style="fill:#414A52;" width="27.865" height="11.146"/>
	<rect x="167.19" y="278.648" style="fill:#414A52;" width="39.011" height="11.146"/>
	<rect x="189.482" y="256.356" style="fill:#414A52;" width="16.719" height="11.146"/>
	<rect x="72.449" y="300.939" style="fill:#414A52;" width="66.876" height="11.146"/>
	<rect x="150.471" y="300.939" style="fill:#414A52;" width="55.73" height="11.146"/>
	<rect x="22.293" y="139.324" style="fill:#414A52;" width="27.865" height="11.146"/>
	<path style="fill:#414A52;" d="M356.336,332.427l-33.103-88.22v-49.154c0-3.078-2.495-5.573-5.573-5.573h-11.146V33.437
		c-0.007-8.975-3.622-17.57-10.031-23.852l-3.901,3.957l3.901-3.957C284.864-1.776,266.76-3.14,253.571,6.353
		c-11.656-8.371-27.354-8.371-39.011,0C208.884,2.244,202.061,0.022,195.055,0c-16.325-0.011-30.271,11.768-32.992,27.865h-39.457
		c-15.389,0-27.865,12.476-27.865,27.865H27.866C12.476,55.729,0.001,68.205,0.001,83.594v245.21
		c0,15.389,12.475,27.865,27.865,27.865h172.762c15.389,0,27.865-12.476,27.865-27.865v-206.2c0,0,0,0,0-0.334
		c-0.028-0.493-0.122-0.98-0.279-1.449v-0.502c-0.273-0.601-0.65-1.148-1.115-1.616L165.796,57.4
		c-0.469-0.464-1.016-0.842-1.616-1.115h-0.502c-0.469-0.157-0.956-0.25-1.449-0.279h-56.343c0-9.234,7.485-16.719,16.719-16.719
		h44.584c3.078,0,5.573-2.495,5.573-5.573c0-12.311,9.98-22.292,22.292-22.292c4.068,0.005,8.058,1.122,11.536,3.232l0,0
		c-0.847,1.229-1.611,2.514-2.285,3.845l-0.446,0.947c-0.601,1.248-1.122,2.532-1.56,3.845v0.334
		c-0.431,1.425-0.766,2.877-1.003,4.347v1.059c-0.32,1.451-0.543,2.922-0.669,4.403c0.007,8.975,3.622,17.57,10.031,23.852
		c2.167,2.124,5.635,2.124,7.802,0c6.409-6.282,10.024-14.877,10.031-23.852c-0.008-1.529-0.12-3.056-0.334-4.57v-1.055
		c-0.237-1.47-0.572-2.922-1.003-4.347v-0.334c-0.439-1.313-0.96-2.598-1.56-3.845l-0.446-0.947
		c-0.674-1.332-1.437-2.617-2.285-3.845l0,0c7.113-4.216,15.959-4.216,23.072,0l0,0c-0.847,1.229-1.611,2.514-2.285,3.845
		l-0.446,0.947c-0.601,1.248-1.122,2.532-1.56,3.845v0.334c-0.431,1.425-0.766,2.877-1.003,4.347v1.059
		c-0.44,1.498-0.775,3.025-1.003,4.57c0.007,8.975,3.622,17.57,10.031,23.852c2.167,2.124,5.635,2.124,7.802,0
		c6.409-6.282,10.024-14.877,10.031-23.852c-0.008-1.529-0.12-3.056-0.334-4.57v-1.059c-0.237-1.47-0.572-2.922-1.003-4.347v-0.334
		c-0.439-1.313-0.96-2.598-1.56-3.845l-0.446-0.947c-0.674-1.332-1.437-2.617-2.285-3.845l0,0c8.741-5.121,19.818-3.824,27.14,3.177
		l0,0c4.118,4.211,6.402,9.881,6.353,15.772v156.043h-11.146c-3.078,0-5.573,2.495-5.573,5.573v49.154l-33.103,88.22
		c-0.644,1.681-0.437,3.57,0.557,5.071l11.146,16.719c1.049,1.552,2.808,2.474,4.681,2.452h78.021c1.864-0.01,3.6-0.951,4.626-2.508
		l11.146-16.719C356.717,335.964,356.945,334.1,356.336,332.427z M209.489,117.032H167.19V74.733L209.489,117.032z M156.044,66.875
		v55.73c0,3.078,2.495,5.573,5.573,5.573h55.73v200.627c0,9.234-7.485,16.719-16.719,16.719H27.866
		c-9.234,0-16.719-7.485-16.719-16.719V83.594c0-9.234,7.485-16.719,16.719-16.719H156.044z M216.956,37.394v0.892
		c-0.265,1.256-0.638,2.486-1.115,3.678v0.502c0,0.557-0.557,1.059-0.892,1.616c-0.279-0.557-0.613-1.059-0.892-1.616v-0.502
		c-0.477-1.192-0.85-2.422-1.115-3.678V37.45c-0.525-2.612-0.525-5.302,0-7.914V28.7c0.265-1.256,0.638-2.486,1.115-3.678V24.52
		c0-0.557,0.557-1.059,0.892-1.616c0.279,0.557,0.613,1.059,0.892,1.616v0.502c0.477,1.192,0.85,2.422,1.115,3.678v0.892
		C217.465,32.168,217.465,34.818,216.956,37.394z M255.967,37.394v0.892c-0.265,1.256-0.638,2.486-1.115,3.678v0.502
		c0,0.557-0.557,1.059-0.892,1.616c-0.279-0.557-0.613-1.059-0.892-1.616v-0.502c-0.477-1.192-0.85-2.422-1.115-3.678V37.45
		c-0.525-2.612-0.525-5.302,0-7.914V28.7c0.265-1.256,0.638-2.486,1.115-3.678V24.52c0-0.557,0.557-1.059,0.892-1.616
		c0.279,0.557,0.613,1.059,0.892,1.616v0.502c0.477,1.192,0.85,2.422,1.115,3.678v0.892
		C256.476,32.168,256.476,34.818,255.967,37.394z M289.405,247.16c0.246-0.621,0.378-1.282,0.39-1.95v-44.584h22.292v44.584
		c-0.006,0.665,0.107,1.326,0.334,1.951l13.932,37.06h-50.825L289.405,247.16z M336.942,345.523h-72.003l-7.914-11.87l14.323-38.286
		h59.185l14.378,38.286L336.942,345.523z"/>
	<rect x="273.076" y="323.231" style="fill:#414A52;" width="11.146" height="11.146"/>
	<rect x="295.368" y="323.231" style="fill:#414A52;" width="11.146" height="11.146"/>
	<rect x="317.66" y="323.231" style="fill:#414A52;" width="11.146" height="11.146"/>
</g>
<g>
</g>
<g>
</g>
<g>
</g>
<g>
</g>
<g>
</g>
<g>
</g>
<g>
</g>
<g>
</g>
<g>
</g>
<g>
</g>
<g>
</g>
<g>
</g>
<g>
</g>
<g>
</g>
<g>
</g>
</svg>
